<svg xmlns="http://www.w3.org/2000/svg" viewBox="0 0 512 512" width="512" height="512">
  <defs>
    <linearGradient id="bg" x1="0" y1="0" x2="1" y2="1">
      <stop offset="0" stop-color="#ff4757"/>
      <stop offset="1" stop-color="#ff7f50"/>
    </linearGradient>
  </defs>
  <rect width="512" height="512" rx="112" fill="url(#bg)"/>
  <!-- chef hat -->
  <path fill="#ffffff" d="M256 96c-30 0-56 18-67 44-7-3-15-5-23-5-33 0-60 27-60 60 0 28 19 51 44 58v74c0 13 11 24 24 24h164c13 0 24-11 24-24v-74c25-7 44-30 44-58 0-33-27-60-60-60-8 0-16 2-23 5-11-26-37-44-67-44z"/>
  <rect x="138" y="356" width="236" height="40" rx="10" fill="#ffe3dc"/>
  <!-- play triangle -->
  <path fill="#ff4757" d="M232 250l54 32-54 32z"/>
</svg>
